<svg width="122" height="48" viewBox="0 0 122 48" fill="none" xmlns="http://www.w3.org/2000/svg">
<g clip-path="url(#clip0_17_8509)">
<path d="M38.1253 32.4265L39.5934 28.995C41.2009 30.1854 43.2976 30.8155 45.3947 30.8155C46.9325 30.8155 47.9109 30.2205 47.9109 29.3103C47.8758 26.7891 38.6496 28.7499 38.5794 22.4113C38.5443 19.1898 41.4104 16.7037 45.4649 16.7037C47.8758 16.7037 50.2878 17.2992 52 18.665L50.6281 22.1697C49.0527 21.1567 47.1069 20.4504 45.2549 20.4504C43.9968 20.4504 43.1577 21.0454 43.1577 21.8163C43.1928 24.3024 52.4897 22.9366 52.5945 28.995C52.5945 32.2866 49.7981 34.5978 45.8138 34.5978C42.8785 34.5978 40.1874 33.8976 38.1248 32.4265H38.1253ZM96.5834 27.7524C96.2128 28.4109 95.6737 28.9589 95.0215 29.3403C94.3692 29.7217 93.6273 29.9227 92.8717 29.9228C90.5169 29.9228 88.6082 28.0101 88.6082 25.6508C88.6082 23.2914 90.5169 21.3787 92.8717 21.3787C93.6273 21.3788 94.3692 21.5798 95.0215 21.9612C95.6737 22.3426 96.2128 22.8906 96.5834 23.5491L100.665 21.2835C99.1361 18.5513 96.22 16.7037 92.8717 16.7037C87.9401 16.7037 83.9422 20.7091 83.9422 25.6508C83.9422 30.5919 87.9401 34.5978 92.8717 34.5978C96.22 34.5978 99.1361 32.7502 100.665 30.018L96.5834 27.7524ZM55.243 34.2474H60.3456V9.25586H55.2435L55.243 34.2474ZM103.242 9.25586V34.2474H108.344V26.76L114.391 34.2474H120.913L113.224 25.3525L120.353 17.0526H114.111L108.344 23.9531V9.25586H103.242ZM76.0658 17.0536V19.0851C75.2272 17.6841 73.1651 16.7037 70.9983 16.7037C66.5248 16.7037 62.9951 20.661 62.9951 25.6332C62.9951 30.6055 66.5248 34.5978 70.9983 34.5978C73.1651 34.5978 75.2272 33.6174 76.0658 32.2164V34.2474H81.1684V17.0536H76.0658ZM76.0658 27.787C75.332 29.0125 73.7942 29.9223 72.082 29.9223C69.7267 29.9223 67.818 28.0101 67.818 25.6508C67.818 23.2914 69.7267 21.3787 72.082 21.3787C73.7942 21.3787 75.332 22.3241 76.0658 23.5842V27.787Z" fill="black"/>
<path d="M11.1781 8.70312C9.52449 8.70312 8.18418 10.0464 8.18418 11.703C8.18379 12.0966 8.26092 12.4864 8.41116 12.8501C8.5614 13.2139 8.78182 13.5444 9.05982 13.823C9.33783 14.1016 9.66798 14.3227 10.0314 14.4736C10.3949 14.6246 10.7845 14.7025 11.1781 14.7029H14.1724V11.703C14.1731 10.9081 13.858 10.1456 13.2965 9.58299C12.7349 9.02041 11.9729 8.70392 11.1781 8.70312V8.70312ZM11.1781 16.7028H3.19389C1.54031 16.7028 0.200012 18.0461 0.200012 19.7032C0.200012 21.3598 1.54031 22.7031 3.19389 22.7031H11.1786C12.8316 22.7031 14.1724 21.3598 14.1724 19.7032C14.1724 18.0461 12.8316 16.7028 11.1781 16.7028" fill="#36C5F0"/>
<path d="M30.1411 19.7032C30.1411 18.0461 28.8003 16.7028 27.1468 16.7028C25.4932 16.7028 24.1529 18.0461 24.1529 19.7032V22.7031H27.1468C27.9416 22.7023 28.7036 22.3858 29.2652 21.8233C29.8267 21.2607 30.1418 20.4981 30.1411 19.7032V19.7032ZM22.157 19.7032V11.703C22.1576 10.9081 21.8425 10.1456 21.281 9.58299C20.7195 9.02041 19.9574 8.70392 19.1626 8.70312C17.509 8.70312 16.1687 10.0464 16.1687 11.703V19.7027C16.1687 21.3603 17.509 22.7036 19.1626 22.7036C19.9574 22.7028 20.7195 22.3863 21.281 21.8238C21.8425 21.2612 22.1576 20.4986 22.157 19.7037" fill="#2EB67D"/>
<path d="M19.1626 38.7031C19.9574 38.7023 20.7195 38.3858 21.281 37.8233C21.8425 37.2607 22.1576 36.4981 22.157 35.7032C22.1576 34.9084 21.8425 34.1458 21.281 33.5832C20.7195 33.0206 19.9574 32.7041 19.1626 32.7033H16.1687V35.7032C16.1687 37.3598 17.509 38.7031 19.1626 38.7031ZM19.1626 30.7034H27.1473C28.8003 30.7034 30.1411 29.3601 30.1411 27.703C30.1418 26.9081 29.8267 26.1456 29.2652 25.583C28.7036 25.0204 27.9416 24.7039 27.1468 24.7031H19.1626C17.509 24.7031 16.1687 26.0464 16.1687 27.703C16.1683 28.0966 16.2454 28.4864 16.3957 28.8501C16.5459 29.2139 16.7663 29.5444 17.0443 29.823C17.3224 30.1016 17.6525 30.3227 18.016 30.4736C18.3794 30.6246 18.769 30.7025 19.1626 30.7029" fill="#ECB22E"/>
<path d="M0.200014 27.703C0.199619 28.0966 0.276744 28.4864 0.426987 28.8501C0.577229 29.2139 0.797647 29.5444 1.07565 29.823C1.35366 30.1016 1.68381 30.3227 2.04726 30.4736C2.41071 30.6246 2.80033 30.7025 3.19389 30.7029C3.98876 30.7021 4.75076 30.3856 5.3123 29.823C5.87384 29.2605 6.18893 28.4979 6.18827 27.703V24.7031H3.19389C1.54032 24.7031 0.200014 26.0464 0.200014 27.703V27.703ZM8.18419 27.703V35.7027C8.18419 37.3598 9.52449 38.7031 11.1781 38.7031C11.9729 38.7023 12.7349 38.3858 13.2965 37.8233C13.858 37.2607 14.1731 36.4981 14.1724 35.7032V27.703C14.1728 27.3094 14.0957 26.9196 13.9454 26.5558C13.7951 26.192 13.5747 25.8614 13.2966 25.5828C13.0186 25.3043 12.6884 25.0832 12.3248 24.9323C11.9613 24.7813 11.5717 24.7035 11.1781 24.7031C9.52449 24.7031 8.18419 26.0464 8.18419 27.703Z" fill="#E01E5A"/>
</g>
<defs>
<clipPath id="clip0_17_8509">
<rect width="121" height="48" fill="white" transform="translate(0.200012)"/>
</clipPath>
</defs>
</svg>
