<svg width="121" height="48" viewBox="0 0 121 48" fill="none" xmlns="http://www.w3.org/2000/svg">
<g clip-path="url(#clip0_17_8511)">
<path d="M38.9308 21.8009C38.9308 19.6682 36.7981 17.3934 33.2436 17.3934C29.2625 17.3934 24.7128 20.3791 24.0019 26.3507C23.291 32.3223 26.9876 35.0237 30.8265 35.0237C34.6654 35.0237 36.5137 33.6019 38.5042 31.6114C36.7981 29.4787 34.5232 30.4739 34.0966 30.6161C33.6701 30.9005 32.9592 31.1848 31.8218 31.1848C30.4 31.1848 28.836 30.4739 28.836 27.7725C38.2199 26.7772 38.9308 23.9336 38.9308 21.8009ZM34.381 22.0853C34.381 22.7962 34.0966 23.9336 29.4047 24.5024C30.4 20.9479 32.2483 20.6635 33.1014 20.6635C33.9545 20.8057 34.381 21.3744 34.381 22.0853ZM18.599 22.654C18.599 22.654 16.6085 28.9099 16.4663 29.4787C16.4663 28.9099 14.9023 17.6777 14.9023 17.6777C11.49 17.6777 9.64167 20.0948 8.78859 22.654C8.78859 22.654 6.37153 28.9099 6.22935 29.4787C6.08717 29.0521 5.80281 22.7962 5.80281 22.7962C5.51845 19.6682 2.67484 17.6777 0.399963 17.6777L3.24357 34.7393C6.79807 34.7393 8.78859 32.3223 9.78385 29.763C9.78385 29.763 11.9166 24.218 12.0587 23.9336C12.0587 24.218 13.6227 34.7393 13.6227 34.7393C17.1772 34.7393 19.1677 32.4645 20.163 30.0474L25.1393 17.6777C21.4426 17.6777 19.5943 20.0948 18.599 22.654ZM52.1535 17.2512C50.0208 17.2512 48.3147 18.3886 46.8929 20.237L48.0303 10C45.0445 10 42.7696 12.5592 42.2009 16.2559L39.926 34.5972C41.6322 34.5972 43.3383 34.1706 44.3336 32.891C45.1867 34.0284 46.4663 34.8815 48.3147 34.8815C53.291 34.8815 56.7033 29.1943 56.7033 23.7915C56.8455 18.8152 54.4284 17.2512 52.1535 17.2512ZM51.5848 26.0663C51.0161 29.0521 49.4521 31.0427 47.7459 31.0427C46.1819 31.0427 45.4711 30.3318 45.4711 30.3318C45.7554 27.7725 46.0398 26.0663 46.6085 24.6445C47.1772 23.2227 48.599 21.09 50.0208 21.09C51.4426 21.2322 52.1535 23.0806 51.5848 26.0663ZM69.2151 17.6777H65.8028V17.5355C66.0872 15.2607 66.5137 14.1232 68.362 13.981C69.4995 13.8389 70.0682 13.2701 70.2104 12.5592C70.3526 11.9905 70.6369 10.1422 70.6369 10.1422C63.6701 10.1422 61.5374 13.128 60.9687 17.6777V17.8199H60.8265C59.6891 17.8199 58.4094 19.0995 58.2673 20.6635L58.1251 21.2322H60.4L58.4094 37.1564L57.8407 40C57.9829 40 57.9829 40 58.1251 40C61.3952 39.8578 63.3857 37.2986 63.9545 33.6019L65.5184 21.09H66.6559C67.6511 21.09 68.9308 20.0948 69.2151 18.2464V17.6777ZM87.1298 17.3934C83.1488 17.3934 79.4521 20.3791 78.3146 24.9289C77.1772 29.4787 78.8834 35.0237 84.7128 35.0237C90.5421 35.0237 93.9545 29.3365 93.9545 24.6445C93.8123 19.9526 90.6843 17.3934 87.1298 17.3934ZM88.6938 25.9242C88.5516 28.0569 87.5564 31.1848 84.9971 31.1848C82.4379 31.1848 82.8644 27.4882 83.0066 25.782C83.291 23.9336 84.2862 21.2322 86.5611 21.2322C88.6938 21.2322 88.9781 23.6493 88.6938 25.9242ZM113.575 22.654C113.575 22.654 111.585 28.9099 111.443 29.4787C111.443 28.9099 109.879 17.6777 109.879 17.6777C106.466 17.6777 104.618 20.0948 103.765 22.654C103.765 22.654 101.348 28.9099 101.206 29.4787C101.206 29.0521 100.779 22.7962 100.779 22.7962C100.637 19.6682 97.6512 17.8199 95.3763 17.8199L98.2199 34.8815C101.774 34.8815 103.765 32.4645 104.76 29.9052C104.76 29.9052 106.893 24.3602 107.035 24.0758C107.035 24.3602 108.599 34.8815 108.599 34.8815C112.154 34.8815 114.144 32.6066 115.139 30.1896L119.831 17.6777C116.277 17.6777 114.428 20.0948 113.575 22.654ZM72.4853 10.1422L69.6417 33.4597L69.0729 36.3033C69.2151 36.3033 69.2151 36.3033 69.3573 36.3033C72.4853 36.3033 74.7601 33.4597 75.0445 30.0474L76.7507 16.6825C77.1772 12.7014 74.618 10.1422 72.4853 10.1422Z" fill="#1B1B1B"/>
</g>
<defs>
<clipPath id="clip0_17_8511">
<rect width="120" height="48" fill="white" transform="translate(0.399963)"/>
</clipPath>
</defs>
</svg>
